<?xml version="1.0" encoding="UTF-8"?>
<svg xmlns="http://www.w3.org/2000/svg" height="1120" width="800" xmlns:xlink="http://www.w3.org/1999/xlink" viewBox="-400 0 800 1120">
<defs><clipPath id="l"><use xlink:href="#a"/></clipPath></defs>
<path d="m107 321.2c12-35.2 28.4-88.1 27-102.2-4.3-42.6-57.95-150-134-208-61 57-131 160-134 209-2 18 28 101.2 28 101.2z" stroke="#000" stroke-width="12" fill="none"/>
<path id="a" d="m-1.222 11.62c-52.28 51.82-90.23 103.1-111.3 145.4-14 27-21 47-23 63-1.8 15 28.4 98 28.4 98h213.9s28.7-74 28.7-99c0-16-21-60-26-69-22.96-42-71.44-109.6-110.7-138.4z" fill="#eb0"/>
<use xlink:href="#d" transform="scale(-1,1)"/>
<g id="d">
<use xlink:href="#f"/>
<g id="f" stroke="#000" stroke-width="2.7">
<path fill="#e01" d="m84.5 325.9-56.5 0.2c0.4 30 7 82.1 25 122.1h72c-29-31.7-40.5-102-40.5-120zm198 191.1c-30.4 14.4-49.9 20.4-67 18v79.9c37 2 73.5-10.2 109-29.9z"/>
<path fill="#eb0" d="m249.7 549.8 2.6 13.3-14.2 2.5 2.8 13.6 14.1-2.2 2.4 13.4 14.4-2.6-2.5-13.3 13.9-2.3-2.5-13.9-14.1 2.5-2.2-13.5zm44.1-45.7c15.8-18.2 29-44.7 31.3-64 1.3-11 12.8-5 13 2.6 0.6 28-19.6 53-37.6 72.4 21.4-23 32.6-40 38.2-62.7 3.4-13.6 15-3.3 13 6.5-5.2 25-27.3 47.8-44.3 67.2 22.3-24.4 31.6-35.5 45.2-63.6 4.2-8.8 12.2 1.5 11.2 9.2-1 8-27 46-49.7 65.3 21-19.2 37.2-39.8 48-59.5 5-9.3 15 2 10.7 9.6-9.8 17.2-25.2 37.8-52 60.8 25-20 40.3-41.3 52-60.8 5-8.6 11.2 5.2 8.3 10.6-11.8 22.7-33.7 44.5-53.5 61 23.3-17.4 42.8-42.6 53.5-61 4.5-7.6 11.8 5.4 7.7 12.2-13 21.2-35.3 43.8-54.4 60 23-19.2 41-40.3 54.4-59.9 3.8-5.7 13.5-0.3 9.3 7.4-12.4 23-36.6 47-57 63.4"/>
<path fill="#eb0" d="m294 504c-4.3-6-16.7 5.4-13.7 9.2l48 77.5c4 6.3 17.2-6.6 13-10.7l-47.2-76z"/>
<path fill="#fffbdb" d="m243.4 1010c8.2-10 19.7-19 30-24.3 9-4.8 14.8-5 23.3-0.4 13.5 7 23.6 8.7 38 8 7.2-0.4 15-0.2 17 1-9 1-30.2 17.7-42 31.7-22.5-2-45.3-8-64-15zm-86.6 44c17.2 13 44.4 20 66 20-32 11-28.6 36-18 39-20.8-7-43.5-11-62.6-21-10.4-5-12.8-16-8.3-24s14-12 23-14zm-157.4-82.5c61 0 122.3 7 175.3 18.3 26.5 5.6 50 13.2 71.2 21.2 36.3 14 87.8 24 123 4-0.5 6-13 15-19.4 19-23.7 17-28 23-29 40-0.4 9-5.5 12-23.5 12-33.2 0-58-10-88-21-63-23-141-34-209-34"/>
<path fill="#d12" d="m309.8 1026c12-14 33.2-30.8 42.2-31.7 15 3 20 10.7 16.3 20.7-17 10-37.6 13-58.5 11zm-47.5 56c-5.8 9-18.3 20-28 26-9.3 6-19 8-29.6 5-10.7-3-16.2-28 16-39-10.7 0-21-3-32.7-6 0 0 5.7-5 8.4-7 4 1 12 4 12 4 19 7 34.4 12 54 17z"/>
</g>
</g>
<use stroke="#d9dadb" xlink:href="#h" transform="scale(-1,1)" fill="#d9dadb"/>
<g stroke="#eb0" fill="#eb0">
<g id="h" transform="rotate(-45 6 458)">
<path stroke="#000" stroke-width="3" d="m-12 790v-665h24v665m-24-651h-23v19.6h-21v-19.6h-37v16h23v20h-23v24h30v-19h21v19h19v21h-19v19h-21v-19h-30v25h23v21h-23v15.4h37v-20.3h21v20.3h23"/>
<use stroke-width="24" stroke="#000" xlink:href="#i"/>
<use xlink:href="#e" transform="rotate(90 0 876)"/>
<g id="e">
<use xlink:href="#c" transform="rotate(180 0 876)"/>
<g stroke-width="18">
<path id="i" fill="none" d="m0 812 64 64-64 64-64-64 64-64z"/>
</g>
<path id="c" stroke="#000" stroke-width="3" d="m23 800c0 6-11 13-23 13s-23-6-23-13 11-13 23-13 23 6 23 13z"/>
</g>
<g stroke="#000" stroke-width="2" fill="#e01">
<path d="m-37.3 835s-2.5-5-11.4-2c-0.5-3-6.3-5-9.8-4 0-3-9.8-7-14-8-4.3 3-9.2 7-13.6 9 2.5 5 12.5 8 15.3 7-2.7 4 9 6 11.7 5 2.4 7 10.2 4 10.2 4zm-37.6 123v-17m9 11-0.5-16m8.4 11-1.7-17m6-5 4.7 15m1.4-23 6 17m0.7-25c2.3 5 4 11 5.7 17m7-10-7.2-15m5.8-8 8 12m5.4-7-9.2-12m12.3 0-11.3-7m11.6-4-14.3-7m11.3-6-13.6-1m-18.3-28-10.2 9m0.4-14-12.3 9m-8.6 126c2.2-1 3.6-3 4-5 4.8 2 8.7-4 9.2-6 4 3 8-3 8-5 3 2 7.5-2 8.7-7 3.7 2 6.8-2 7.2-6 3.4 0 5.6-4 6.4-8 4.5-1 7.7-8 7-10 3.4-2 9-7 6.4-11 2.6 2 6.8-3 5.5-7 3.6-3 7.17-7 3-12 2.8-3 3-8 0.2-11 4.67-6 2.5-10-2.8-13 3-10-7.2-12-7.2-12l-9.2 9s1.2 1 2.6 2c-4 2 0.8 6 2.3 7-4.7 4-0.8 8 2.7 11-2.7 1-3.8 3-0.8 7-4.6 2-4.6 7-4 7-3-1-6.5 6-6 8-2.8-1-7.3 5-5.3 8-3.6-2-7 5-6.6 9-2-1-6.4 2-6 7-3-3-6.2 2-6 5-3-3-6.7 4-7 6-2.5-2-7.8 0-8.4 6-1.7-3-5-1-7.7 2zm-39.2-21c-22 0-43 1-53-10-3.7-4.6-5.7-8-11-4-6 4-4 10 3 13 16 9 41 10 60 7-19 3-44 2-60-7-5-2-11-3-12 3-1 5 3 8 7 8 24 5 45 4 64 2-19 2-40 3-64-2-3 0-9 0-9 5 0 3 2 4 5 5 11 4 55-1 69-3-13 2-51 6-66 4-5 1-7 4-6 7 1 6 9 7 15 6 15-4 37-9 58-12-22 3-46 8-60 13-6 1.2-9 4-7 9 1.5 4 4 5 8 3 17-10 35-15 60-21-25 5-43 12-60 21-3 4-4 7-1 11 2.7 4 8 3 11 0 9.3-13.8 33.5-20.3 52-27-25.6 8.2-57.3 20-54 37 1.3 7 8.8 6 11.3 1 6-20 29-26.3 45.7-33"/>
<g transform="rotate(-10 -90 955)">
<ellipse d="M -86,956 C -86,970.3594035 -93.61115925,982 -103,982 -112.3888407,982 -120,970.3594035 -120,956 -120,941.6405965 -112.3888407,930 -103,930 -93.61115925,930 -86,941.6405965 -86,956 Z" rx="17" ry="26" cy="956" cx="-103"/>
<ellipse d="M -75,956 C -75,966.4934102 -82.163444,975 -91,975 -99.836556,975 -107,966.4934102 -107,956 -107,945.5065898 -99.836556,937 -91,937 -82.163444,937 -75,945.5065898 -75,956 Z" rx="16" ry="19" cy="956" cx="-91"/>
</g>
</g>
</g>
</g>
<g stroke="#000" stroke-width="2">
<path stroke-width="5" d="m-218 435v324c0 118 98 200 218 200s218-81 218-200v-324z" fill="#06b"/>
<path stroke="#eb0" d="m0 474v268"/>
<g stroke-linejoin="round" fill="#eb0">
<path d="m70.4 860c-4.19 7.2-11 13-19 15.6-4.52 1.5-9.35 2.2-14 2-1.69-0.3-2.12-2.3-2.33-3.8-0.14-2-0.59-4.3 0.8-6 1.2-1.2 2.86 0 3.74 1 1.99 1.3 4.54 1 6.78 0.8 3.35-0.7 6.33-2.5 9.23-4.2 3.46-2.2 6.91-4.7 9.38-8 2 0.8 3 0.8 5.5 2.6zm-14.3-22.2c-4.8-1.3-8.8-5-9.5-10.5-0.8-6.5 0-12.5 1-19 0.6-3.2 3.5-6.5 6.3-3.8 1.4 1.4 1.3 2.8 3.2 3.7 3.6 1.8 4.4 3.3 5.5 8 1.5 6.7 4.4 7.8 7.2 11.3 1.6 2 5.7 5.6 6.6 9-4.4-2.8-9-4.4-13.8-1-2.2 1.3-4.4 2-6.5 2.2zm27-29.5c-1-6.4-5.5-14.3-11-17-4-2-8-1-10.4 2.6-2.6 4-4 10.3-4.8 14.3 3.6 1.8 4.7 3.4 5.8 8 1.5 6.7 4.4 7.8 7.2 11.3 1 1.3 2.8 3 4.4 5l3 0.6c0.2-2 0.8-3.7 1.8-5.4-1-6.3 0.5-13.2 4-19.4zm-5.5 29c-4.8-3.2-9.6-5.3-15-1.7-3.8 2.6-8.6 2.5-11.6 2.3-7-0.7-9.3-0.2-5.3 6.7 3.2 5.7 7.6 8.3 13.2 10.5 1.2 0.4 5.2 1.2 5.8 1.9l4.6 2.1c-1.6-1.5-3.2-3.4-4.8-6-2-3.3-2.7-5.5 5.4-7.5 2-0.5 1.8 0.2 3.2-0.4 2.5-1.3 3.5-1 6 0 2.4 1 5 2.6 7.7 3.1v-0.6c-0.7-0.3-1.5-0.5-2.2-1-3.8-2-6.3-5.6-7-9.6zm12 10.9c-3.4 0.8-7.3-1.8-10.6-3-2.5-1-3.4-1.2-6 0-1.3 0.6-1.04 0-3.04 0.4-8 2-7.46 4.3-5.46 7.6 6 10 12.5 10.5 20.8 10.4 0.8-0.3 1.5-0.5 2.4-0.8 2-1 4.2-1.7 5.6-2.2 1-2.2 2.4-4 4-5.5l-1.8-8c-1.8 1-4 1.2-6 1zm3.8 12.4c-1.4 0.4-3.6 1.3-5.7 2-3.2 1.3-5.5 1.5-8.4 3-1.7 1-2 2-2 4s0.3 4.6 0.5 6c0.5 3.6 2.7 6.4 3.4 10.2 0.4 2.2 2 3 3.5 4.7 1.3 1.7 3 1.3 3.6-0.2 1-2.5 1.2-2.6 3.5-4.2 2-1.3 2.2-3 0.2-7.8-0.8-2-0.5-4 0.4-5.6-0.8-4-0.3-8.4 1.4-12.2zm4-5.5c-7 5.8-8.2 20.5 0.2 25.4 5.4 3.2 9.4 5 15 5.5 3.7 0.3 5.7-1 4.3-7.5-1-5.3-1-9-2.4-13.8-0.2-0.3-0.3-0.7-0.4-1-4.6-3.6-10-7.3-15.7-8.8-0.2 0-0.5 0.2-0.8 0.3zm20.5-12.5c10 1.6 13 11.8 11 24-1.3 8.6-7.4 3-12.3-1-6.2-5-14.7-11.4-23-11.4l7-8.2c5 0.5 11.6 0.2 14.3-1 1.2-0.6 2.2-1.4 3-2.3zm18.6 0.6c3.8 8 1.7 15.3-7 16 0-8.8-3.6-15.5-11.5-16.7 1.6-2 3-4 3.2-6.5 3 4.8 10.5 7.3 15.4 7.1zm-37.3-53c0-3.2 1-7 1.5-10.6 0.7-4.2-4-4.2-7.4-3.7-9 1.5-16.6 8-19.2 16.6 1.6 1.3 3 3 4.3 4.7 3.8-1 8.3-1 12 2 0.3-0.2 2-1.7 2.5-2 1.3-3.2 3.7-5.5 6.4-6.9zm-8.8 8.9c-3.6-2.8-8-2.7-12-2 2.3 3.4 4 7.5 4.5 11 2-3.4 4.4-6.5 7.4-9.2zm20.6 22.6c6.3 1.4 11.8 9.2 10 15.6-1 3-3 6-6 7.5-3.3 1.7-12.4 1.7-17.3 0.8 0.4-0.4 0.7-0.8 1-1.2 2.6-3.6 3.8-9 4.3-13.8 4.4-1.6 7.2-5 8-8.9zm-13-17c6.2 0 11.2 4.3 12.8 10.5 1.7 6.5-1.2 13-8 15.5 0.3-2.6 0.4-5 0.5-6.7 0.2-7.5-4-9-11.2-4.8-0.3 0.2 0.4-0.2 0 0 2.6-4 4.8-9.7 5.8-14.5zm-5.8 14.5c3.5-5.6 6.7-14.5 6.4-19.6-0.3-5.3-4.2-3.8-7-1.6-9 7.6-14.6 19.5-12.7 29.7 0.4-0.7 1-1.4 1.5-2 2.3-2.7 8.3-4.6 11.7-6.4zm-7.6 27.5c-7.6-3.5-10-14.5-4-21 2.6-2.8 9.5-5 12.5-6.8 5-3.3 10.7-2.3 10.4 5-0.2 4.8-1 15-4.8 20.5-3.5 4.7-9.2 4.4-14 2.2zm31-50.2c-5-11-19-9.2-23 0.6 2.5-1.6 5.5-2 5.7 2.5 0 1.4 0 3.2-0.5 5 5.2 0 9.4 3 11.7 7.4 1-1 2-1.8 3.2-2.6-1.2-4.4-0.8-9.4 2.8-13zm14 19.6c10.4 2 13.8 8.3 17 17.5 1.6 4.6 2 9-7.7 9.6-7.3 0.3-14-1.6-18-6.6 0.2-1 0.2-1.7 0.2-2.5 5.4-2.7 8-11.2 8.5-18zm-20-4c2.5-2.2 5.3-4.4 8.7-5.6 5.3-2 10.3-1.7 11.2 4.2 1 6.6-1.2 19.8-8.3 23.4-0.3-5.6-5-11.2-10.3-12.4 0.5-2 0.3-4.3-0.2-6.5-0.5-1-0.7-2-1-3.1zm-7-23c-0.2-7.5 6.2-17.7 13-21 3.8-2 5-0.5 5 1 0.7 3.8 1.7 6.6 3.3 10-5.8 2.7-9.5 10-7 16.5l-1.3 1.1c-1.7-4.3-5.7-8.3-13-7.4zm54.2 22.6c2.2 0.2 3.7 0 7-1 3.6-1.2 3 4.6 2 6.6-4.5 10.5-11 16-19.2 15.6-1.7-4.7-3.5-8.6-6.3-11.5 6.4-1 13.5-4.7 16.5-9.8zm-1.6-11.1c1 0 1.8 0.2 2.4 0.8 2 2 1.3 5.3 0.2 8.3-2.2 6-10.5 10.5-17.5 11.8-2.4-2.5-5-4.3-9.3-5.3 4-2.8 7.4-9.9 8.6-13.2 0.4-1 0.7-2 1-2.8 4.3 2.6 10 2.8 14.7 0.4zm-42.3 8.9c-1.4-4.3-1-9.3 2.8-13 4-4 10.8-4.7 17-3.7 7 1 9.4 3 6.8 10.2-1.3 3.6-5.6 11.5-9.9 13.8 0.2-2.3 0.2-4.4 0-6-1-6-6-6-11.2-4.2-2 1-3.8 1.8-5.5 3zm4-14.1c-3-9 4.8-19 14-17.6 9.8 1.4 13.5 11.7 9.6 19.3-0.7-2.5-3.3-3.7-7.7-4.3-5.8-1-11.8-0.5-15.8 2.6zm37-10.5c1.4 0.8 3 1.5 5 2 4 1 5.5 1 3.3 6-4.5 10-14.8 11.6-22 7.5 0.2-1.3 0.4-2.2 0-3 1.6-3 2-6.4 1-9.5 2.2-1 3.8-3 5-5 2.4 1 5 2 7.6 2.4zm-31.7-10.1c2.7-6 10.6-10.8 16.8-11.6 4-0.4 7 0.4 8.4 4.3 2.3 6.4 0.5 16.8-6 20-1.2-4.8-4.7-9-10.7-9.8-2.3-0.3-4.7 0-6.8 1-0.7-1.3-1.2-2.7-1.7-4.1zm23.4-10.1c5.2-3 12.8-5 18-3.2 3.6 1 5 3.2 5 6.5 0 6-4 13-6.4 15.4-3.5 3.5-11 1.3-16-1 2.3-4.5 2.7-10.6 1-15-0.5-1.3-1-2.2-1.8-2.9zm-231 79.6-7.74 49-7.6-49-40 29.2 29.2-40-49-7.7 49-7.6-29.2-40.2 40 29.3 7.6-49 7.74 49 40-29.3-29.2 40.2 49 7.6-49 7.7 29.2 40.1z"/>
<path d="m94.7 848c-2 0-2.8-0.5-5 0.7-1.5 1-3 0.3-5-0.3-1.8-0.5-2.8-0.5-4.2 0.7-1.2 0.8-2.6 2-3 3.5-0.4 1.4 1.6 1 2.3 0.7 3.3-0.8 7.3 0 10.6-0.3h0.6c0.5-1.4 1.8-2.5 3.5-2.3v-2.6zm1.7 0.8c-1-1.3-3-1.6-4.6-1.6-4.2 0.2-3-9.3-3.2-12 0-2.4 2.4-2 2.7 0.2 0.3 2.5 1 4 1.8 5.4s0.7 1.2 0.8 2.7c0 0.6 0.5 1 1 1s1 1 1 1.5c0.3 1 0.3 2.2 0.3 2.8zm-1.8 1.9c-1.7-0.2-3 1-3.4 2.2-0.4 1-0.7 1-1.2 1.2-1 0.2-1.2 0.5-1.5 1.2-0.2 0.3-1.6 0.4-2 0.3-2.3-0.7-3 1.5-2 3 0.3 0.4 0.3 1.3 0.2 2 0 1.2 0.6 1.4 1.5 0.5 1.2-1.2 1.3-3.6 3.4-2.7 1 0.5 1.7 0.6 3 0 1-0.3 1-1.5 2-1.9v-6zm0-2.9v6.5c0 1.7 0.3 3.6 0 5.2-0.4 2.4-1 6.5 2 6 1-0.2 1.3 0.2 2.3 0.6 0.4 0.2 1.2 1.2 1.4 2 0.3 1 1.4 1.4 1.4 0 0-0.8-0.2-1.7-0.6-2.4-1-1.4-1.3-3-1-4.8 0.2-1.5-0.3-2-1-3.4-0.6-1.3 0.2-2 0.2-3 0-2-1-3.6-2-5-1-0.8-1.8-1-2.7-1.5zm2 0.2c0.7-0.7 0.7-2 0.7-3 0-1.7 0-3.7 0.8-5.6 0.4-1 1.2-2 1.8-2.6 0.6-0.7 4-1.6 4 0.2 0 1.5-0.7 2.6-1.5 3.5-2.4 2.3-1.3 1.7-2.2 4.6-0.6 1.7-1.8 3.2-4 3.1zm0 0.9c1.4 0.6 2.5 2.5 3 4.8 0.6 2.8 0.6 6 4 8 1.3 0.8 2 2.4 2.8 3.4 1.5 2.2 1.6-1 1.3-2-1-2.6-1.5-5-1.7-7.8 0-2-1-3.5-2-5-1.4-0.2-2.3 0.6-4.4-0.6-1-0.5-2-1-3.2-1zc2-1.6 4.5-3.7 7.4-3.7 5 0 3.5 6.7 9.4 5.8 2.3-0.4 3 0.2 1.7 1.8-1.6 1.8-5.3 1.4-7.4-0.4-4.2-3.7-4.6-0.6-8-2.5-0.8-0.5-2-1-3.2-1zm-21.5-29.2c-2.4 0-2.5-1.7-3-3.5-0.4-1.4-0.8-1.7-1.5-2-1.3-0.3-2-0.7-2.3-1.8-0.3-1-0.6-1.4-1 0.4-0.2 1 0 2.5 0 3 0.4 2.3 1.6 2.8 2.5 5 0.5 1.3 0.7 3.6 1 5.6 0.4 0.3 0.7 0.7 1 1 0.4 1.3 1 1.3 2 2.2s1.4 2.4 1.6 4c0.4 0.8 0.8 1.6 1 2.4 0.4 0.2 0.7 0.4 1 0.6-0.2-1-0.3-2.4-0.3-3.6-0.3-1-0.6-2.2-1-3.2-1-1-1.6-2.5-2.2-4-1-2.3-1.3-2.3 0-4.4 0.4-0.5 1-1 1.2-1.8zm1 10.3c-1-1-1.6-2.5-2.2-4-1-2.3-1.3-2.3 0-4.4 1-2 2.6-4 3-6 0.4-1.7 1.3-3 3.2-2.4-1 3-1.7 6-1.8 9-0.6 1-1.2 2-2 3-1.4 1.7-1.2 2.5-0.6 4.4 0.2 0.3 0.3 0.5 0.3 0.6zm9.4-8.1c0-1.7 1-2.3 1.3-3 1-2.3-0.4-1.4-1.3-1.3-2 0-5 1-6.5 3.5-0.7 1.2-1.4 3-2.5 4.2-1.3 1.6-1 2.5-0.6 4.3 0.4 1 0.8 2.4 1 3.7 0.2-3 1.2-5.8 3.3-8 1-1.2 3-2.3 5.2-3.3zm-10 13.9c-5.8-6.3-5.3-6-14.6-6.5-2.7-0.2-3.3 0-3.8-2.2-0.3-1-1.5-3.5-1.4-4.6 0.2-2.5 1.5-0.5 2.7 0.8 1 1 2.4 2 4.4 2 3 0 8-0.4 9 2.3 0.5 1.2 1.2 1.3 2 2.2 1.3 1.3 1.7 3.6 1.8 6z"/>
<use xlink:href="#g" transform="rotate(180 0 610)"/>
<path id="g" stroke-linecap="round" d="m0 747c2.57-21.7 3.74-45.6 7.08-67.3 1.86 25.5 13 22.7 10.8 30.6-6.05 20.3 12.3 11.8 8.6 34 9.57-23-7.18-18.5-1.7-28.8 12-19-9.77-18-4.34-38.4l32.5 60.2-18.5-61.6c10.8 19 19 13.2 20 21 2.25 21 16 6.2 21 28-0.02-24.8-13.7-14.2-12.7-25.8 3.72-22.3-16.2-13-19-34.1l53.3 43.3c-14.2-17.8-29.7-35.3-43.3-53 19.6 17 25.5 7 29.6 14.3 10 18.6 17-0.4 30 17.8-9.5-23-18.2-8-21.6-19-5.03-22-20-5.8-30.4-24.3l65.7 19.7c-19.9-11-41-21.3-60.2-32.6 24.9 8.2 26.5-3.3 33 1.7 16.5 13 15.5-7 34.6 4.6-17.7-17.4-19.8-0.2-27.3-9.2-13.3-18.3-20.6 2.6-37.6-10.5l68.3-7.4-68.2-6.3c26-1.7 23.2-13 31-10.7 20.3 6.2 12-12.2 34-8.4-5.7-2.5-9.7-3.2-12.7-3-9 0.4-8.3 8.8-16 4.6-19-12-18.2 10-38.8 4.1l60.7-32.1c-22 6-44.6 14-66 19 23.6-12 16.4-21.3 24.6-22.4 21-2.4 6.05-16 27.7-21.3-24.8 0.3-14 14-25.7 13-22.4-3.5-12.6 16.5-34.2 19.3l43-53.7-52.6 44h-0.05c17.2-20.2 6.97-26 14-30.2 18.4-10.3-0.6-17 17.3-30.3-22.8 9.8-7.64 18.3-18.7 22-22 5.4-5.27 20-24 30.9l19-66.1c-4.79 6-28 61.8-31.8 60.6 7.96-24.8-3.52-26.3 1.43-32.8 13-16.6-7.02-15.6 4.53-34.7-17.4 17.8-0.15 19.8-9.05 27.4-18.2 13.2 2.45 20.5-10.2 37.4l-7.32-68"/>
</g>
<g stroke-width="1">
<path id="k" stroke-width="0" d="m-5 647c-1 2-1 2 0 4 2.5 0 3 2 3 2l2 17 2-17s0.5-2 3-2c1-2 1-2 0-4z"/>
<g id="j">
<use xlink:href="#k" transform="rotate(60 1 676)"/>
<path d="m-0.003985 630.4 2.53-16h8.974v18.3c0 1.6-1.894 3.6-4.094 3.6h-3.09v2.1h21.1v-2.1h-2.5c-2.8 0-4.82-1.4-4.82-3.6v-39.1c0-1.5 2-3.7 5.4-3.7h1.91v-2h-21.2l-0.004 2h1.78c2.8 0 5.314 2 5.414 3.7v17.6h-8.944v-42.1h14.6l7.02 9.1v-22.7l-7.02 8.5h-14.5l-0.104-8.5 8.634-7.7h-12.09" fill="#e01"/>
</g>
<path d="m-59.4 588v2h4.4c2 0 4.3 1.6 4.3 3.7v39.1c0 1.7-1.18 3.6-4 3.6h-4.6v2.1h25v-2.1h-4.4c-2.3 0-4.2-2-4.2-3.6v-39.1c0-2 2.8-3.7 4.6-3.7h4v-2zm116-1.2c-0.3 2.2-1 3.5-1.7 4-25.4-13.7-37 15-13 25 33.8 14-8.8 32-11 5.7h-1.9v17.7h2.2c0-2.3 1.2-3.5 1.3-3.6 28 11.7 40.8-14.5 15.7-26-32.4-15 6.2-31 8.6-4.7h2.1v-18.2z" fill="#e01"/>
<use xlink:href="#j" transform="scale(-1,1)"/>
</g>
</g>
<path d="m125 1e3c-6.6-3.3-13.3-1-15.4 5l7.7 2c0.5 0 1-2 2-3 2.3-2 2.4 1 1.8 2-1.2 3-1 6-1.7 8-0.8 1-2.7 2-3-2l-8-3c-0.8 12 6.7 12 9.3 11 0.5-1 0.8-2 1-2 0.8-2 1.7-1 1.8 0 0.3 3 0.5 3 2 5 2 2-0.8 3-2.8 1-10.7 3-16.4-7-13.5-19 2-8 12.8-15.3 21.3-7 0.2 0 1.7-1 2.5-1 2.4 0 1.7 3 0.3 4-1.2 0-1.5 0-2.5 2-2 5-4.5 1-3-1zm83.5 20c-6.6-5-12-2-14.5 5l6.8 3c0.6-1 1.6-3 2.7-4 1.6-1 3.3 1 1.6 3-1 1-1.6 4-1.2 6s-3.3 3-3-2l-8.3-2c-1.3 6 1 12 6.4 11 0.2-2 2-2 2.7 0 0.5 1 0 3 1 4 1.5 3-0.5 4-2 2-0.5 0-0.5-1-1-2-11 1-10-14-9-19 2.6-11 11.5-15 20-9 0.5 0 0.8-1 1.3-1 2 0 1.8 2 1 3-1 1-2 2-2.6 4-2 3-3.3 1-2-2zm72.3 15c6.3 3 6.3 11 2 19-3.6 6-9.4 16-18.5 11-5.8-3-6-12-1-20 3-6 11-13 17.6-10zm-2.3 4c4.7 2 4.4 9 0.7 16-3.7 6-8.8 9-13 7s-4.4-9-0.8-16c2.3-4 8.2-10 13.2-7zm-33.6-15c7.3 4 19 12 12 25-4.2 8-17.8 13-25.5 8l0.8-4c2 0 3.5-2 4.3-4l8-17c0.7-2-0.5-4-2-5-1.6 0 1.8-1 2.6-2zm3 7-10 24c7.3 2 13.3-2 16-6 4.4-8 0.4-16-6-18zm-29.3-14c2 2 5 3 8 3-0.6 1-2 2-1 3 10.4-2 11.5 10 7.5 16-2.3 3-5 5-7.2 7-1.3 2-2 6 0.7 7 2 0 3.5 2 1.7 4-0.6 0-2-1-3-1-2.2-1-4.5-2-6.2-3 1.5-9 9.6-11 12.2-18 1.4-4-1.7-7-4.6-7-3.3-1-5-1-6.7 2-2.7 6-5.4 11-8 17 1.8 1 1.6 2 1 3s-2 1-3.7 0c-0.5 0-1.5-1-2-1-1.6-1-1.6-2-1.4-3 0.4-1 1.2-2 2.5-1 4-6 6.6-12 10-19 0.5-2 1.5-4 0.3-5-0.6 0-1-1-1-2s0.5-2 1-2zm-61-11c-1 8-4 14-6.6 23-2.4-1-3.7 3-1 4 1 0 3.3 1 4.3 1 0.7 0 1.8-1 2-1 0-1-0.8-2-2-3 1-8 4-16 7-23h2c1.6 0 2.6-3 0-4-1.5 0-3-1-4.7-1-3-1-4 4-1 4zm-21-3c-1.8-1-2-3-1.3-4 0.6 0 1.4-1 2 0s2 1 3 1c2 0 2 3 0.4 4h-1.5c-2 7-4.4 14-6.6 21 0.4-1 5.4 0 7.6 2 0-1 1.6-3 3.3-5 1.7-1 3.8 2 1.8 4s-2 1-2.2 4c0 1-1.2 3-2 2-2.3-4-7.4-4-11.2-4-1.6 0-2.5 1-3-1v-3c4.7-4 7.4-12 9.2-20zm44.5 8c-7.7-4-13.2-1-15.4 9-3.2 14 12.7 18 13.4 8-2.5 0-4.7-3-4.8-6s1.8-2 2.8 0 3 2 5 1c5.6-4 3.4 4 0.2 4 0.6 7-4.5 11-9.3 10-9-1-10.5-13-9-21 2.5-11 13-13 19.4-7 1.7-3 4.8-3 3.7 0-0.7 3-2.8 5-3.5 7-1.4 5-2.4-1-2.6-3zm-104-19.8c-7.09-2.3-13.8 2-14.6 8.8h8.65c0.45 0 1-1 1.93-2 1.3-1.7 3.73-0.4 2.76 1-2.07 3-0.82 5-1.05 7-0.16 1-1.26 2-1.85 0-0.17 0-0.34-1-0.5-1l-10-1c0.46 9 6.99 11 11.6 9 0.36 0 0.34-2 0.66-2 0.87-2 2.34-2 2.49 0 0.2 2-0.23 2 2 4 1.92 3 0.48 5-1.36 3-0.83-1-2.31-1-2.83-1-10.6 3-16-7-15.4-16 0.51-9 8-16.3 18.5-14.2 0.86 0.2 2.41 0.2 2.97 0 0.54-0.3 1.25-0.8 1.76-1 1.55-0.6 2.61 1 2.19 1.8-1.05 2-4.3 4.6-5.14 6.7-1.6 3.7-3.7 0.3-2.8-2.4zm-111 20.8c4.17-9 7.53-19 10.7-28.5 0.94-2.4 2.59-2.6 3.02 0.2 0.94 8.4 1.61 17.3 3.57 26.3 1.69 0 3.14 1 3.45 2 0.23 1-0.01 2-0.99 3-1.79 0-3.95 1-5.88 1-1.01-1-1.55-1-1.61-2s-0.26-3 1.11-3l-0.42-7h-7.16l-3.13 8c0.96 0 1.44 1 1.38 2-0.04 1 0 1-1.29 2h-3.13c-1.13 0-1.48-1-1.31-2 0-1 0.4-2 1.6-2zm7-12h5.6l-1-13.2-4.7 13.2zm15.7-18.5c0.436 0.3 0.633 0.8 2.19 1 2.5 0.3 6.45 0.5 8.65 0.3 1.46 0 2.69-0.5 3.39-1 0.389 0.6 3.53 3.4 3 5.2-0.594 2-2.74 0.8-3.4-0.7l-5.8-0.1c-1.43 8-1.52 16 0.562 24 2.47 1 2.34 4 0.551 4-1.26 1-3.08 1-4.2 2-0.96 0-1.67 0-2.08-1-0.927-2 0.246-3 0.978-5 0.596-1 0.619-3 0.657-4 0.235-8.4 0.595-13.5 1.04-20.1l-5.67-0.3c0 0.2-1.81 1.8-1.81 2-1.8-2.4 0.8-5.7 1.8-5.9zm31.8 0.8c-6.8-1.5-12.2 8.5-13 13.4-1.54 9.3-0.275 16.3 5.56 18.3 2.88 1 5.98 0 8.48-3 0.43 2 0.79 4 1.38 6 0.67 1 1.61 2 3.22 2 1.18-1 1.99-2 1.83-3-0.29-1-1.46-2-3.26-1 0.19-2 0.25-5-0.54-7 1.21-2 2.05-5 2.34-8 1-10.5 0-17.2-6-18.5zm-9.4 25.7c2.6-4 8.31-5 11.2-2 0.85-2 1.44-4 1.67-6 0.74-7 1.33-12-3.09-13.6-4.41-1.5-9.5 3.3-10.8 10.2-0.8 4.4-0.6 8.4 1 11.4zm9 0c-1.7-1-4.75 0-6.14 2h0.28c2 1 4 0 5.8-2zm19.5-24.2c2.25 3.6-0.64 9-2.71 13.4-2.27 4.8-2.89 9.8 2.92 12.8 2.24 1 4.44 1 6.83 1 2.75-5 3.78-17.4 4.77-22.5-1.79-0.6-2.32-1.7-2.15-2.7 0.19-1 0.36-2 2.44-1.4 1.26 0.5 2.76 0.6 3.58 0.8 1.2 0.3 1.43 1 1.43 3.3-1.61 0-2.4 0.8-2.72 2.4-1.11 5.2-1.23 11-2.74 16-0.65 2-0.62 6 2 6 0.63 1 0.67 3 0.13 4-1.85-1-6.39 0-7.58 0 0 0 0.42-2 0.74-2-2.88 1-6.56 1-9.36-1-5.43-4-4.74-14-2.2-19.4 1.05-2.2 2.11-4.3 2.11-7-3.26 0-3.36-1-3.61-2-0.2-0.7-0.26-2.7 1.58-2 1.3 1 3.3 1 4.7 0.9zm-240 34.2c-7 0-10.3 6-9.7 13l8.6-3c0.2-1 0-3 0.4-4 0.3-2 1.2-2 1.7-2 1.2 1 1 2 1 2-0.2 1-0.3 3-0.2 4 0 2 1.3 3 0.7 5s-2.7 3-2.6-1l-9 2c1.2 9 9.8 8 13.2 6 0-3 1-4 2-3 2 2 1.5 2 4 3 2.4 1 0.2 3-1.8 3h-2.4c-7.7 9-15.7 2-17.6-6-2-9 0.5-22 10.8-23 1-1 1.5-1 2-1 0.4-1 0.5-1 1-2 1.2-1 1.3 1 1.2 1-0.2 3-1 4-1 7 0.3 3-1.8 1-2-2zm13.6-6 5.3 26c-1.2 1-1.4 2-1.3 2 0.2 1 0.8 2 1.8 1 0.7 0 3 0 3.8-1 1.5 0 1.7-1 1.2-2-0.3-1-1-1-2.5-1l-2.5-9c7.4-2 9.5 2 12 5 1.6 2 4.3 4 6.8 2 2.2-1 2.3-3 0.4-5-2.3 6-6.5 0-7.6-2-1-3-3-6-5.2-6 4.3-2 5.2-9 3-12-4.8-8-11.7-4-16.7-1-1.2 0-2 1-1.3 3 0.3 2 2 3 2.6 2zm2-1 2.2 11c4.8-2 11-4 9.4-10-0.8-3-6.3-4-11.5-1zm28.4 19 5.6-30c0.5-2.8 2.2-3.8 3.3-1 3 8 6 17 10 26 1.8-1 2.8 0 3.4 1 0.4 0 0.3 2-0.7 2-1.8 1-4.8 2-7 3-1 0-1.6 0-1.8-1-0.3-1 0-3 2-3l-2.4-7-8.5 1-1.3 8c2 0 2.4 1 2.5 2s0 2-1.3 2c-0.8 1-2.3 1-3.3 1-1.7 0-2.2 0-2.3-2 0 0 0.5-1 1.7-2zm4.8-12 6.5-1-4-14-2.5 15zm14-24.7c3.3 0.7 6.3-0.2 8.3-2.3 0 1 0.3 4.2 1.7 4.2 6.3-3 12.4 0 12.5 6.8 0 5-0.2 11 0.3 16 0.3 2 2 3 4 2s4.6-2 4.4 1c0 1-0.8 2-1.8 2-2.5 1-6 2-7.4 2-2.7-8-0.5-16-2.4-23-0.8-3-3.7-4-6.7-4-3.4 1-4.6 5-4 8 1 6 2.2 12 3.2 18 0.8 0 1.4 1 1.5 2 0 1 0 2-1 2-0.5 0-2 1-2.8 1-1.8 0-1.8-1-2-2s0-2 1.3-2c-1-8-1.8-16-3.5-24-0.2-2-1.6-3.8-3.2-3.8-0.7 0-1.3 0-2-1-0.5 1-0.5 0-0.6-1zm31-6.5c8.37-0.3 23 2.5 23.3 16.2 0.15 10-9.19 19-19 19v-3c1.67-1 2.17-3 1.77-5l-3.17-20.6c-0.3-1.5-1-3.3-3-3.3s0-2 0-3.3zm4.6 4.3 3.87 25.9c7.24-2 11.6-9 11-14-1-5.8-8.6-10.6-14.9-11.3zm34-6.1c6.92-0.5 10.5 7 10 16s-3.96 16-10 16c-6.05 1-10.2-7-10-16 0.2-8.7 3-15.2 10-15.7zm-0.6 3.7c5.12-0.4 7.77 5.3 7.4 12.3s-2.93 12-7.4 13c-4.48 0-7.53-6-7.4-13 0-6.6 2.3-11.6 7.4-12zm-216 56.3c2.2-5 7.7-8 11.7-4 1-2 3-4 5.7-4 3.7 0 7 4 7.3 8 0.3 6 1.3 12 4.6 17 2.5-1 3.2 1 1.7 2-1.2 1-3 1-4 2-2 0-3.4-2-1.3-2-3-3-2.3-11-3-16-1-7-3-8-9.2-7 0 12-0.2 17 5 23 0.8 1 1.8 1 1.8 2s-0.3 2-1 2c-1 0-2.2 1-3.2 1-2.2 1-3.8-1-1-2-0.3-1-1.2-3-1.8-5-1-4-2-9-2-12s-1.6-7-5.2-7c-4.8 0-5.7 3-5.4 6 0.4 5 4.8 13 4.6 19 3.5-1 4 4 1.4 4h-3.1c-2.4 1-2.4-3-1.3-3-1-19-8.4-25-10.2-26-1.4-2-0.4-4 2-4 1.7 0 3.2 1 5 1 1-1 1.7 0 2 0 0.4 1-0.8 3-2.3 3 0.2 1 0.7 3 1.3 3zm31-11c3 7 5.3 15 6.6 25-1.8 0-1.7 3 0.5 2h4.3c0.7 0 1.2-2 1-2-0.3-1-0.8-1-2-1-3-8-4.7-16-5.5-24h1.4c1.2-1 1-4-1.5-4-1.6 1-4 1-5.8 1-3 0-1.7 3 1 2zm29.6-2c0-2 2-7 3-9-0.8 1-1.5 1-2.6 0-1.4-1-3-1-5 0-3.5 0-7 3-7.6 7-0.8 6 3.6 12 9.7 13 2.5 0 5.4 1 5.4 5s-6.5 6-9.7 3c2.2-3-0.6-4-1-5-0.6 2-1.8 5-4 5-2 3 0.7 5 2.2 3 0 3 4 3 5.6 3 3.4-1 5.7-2 7.2-4 2.4-3 3.3-8 1.7-12-3-6-7.2-3-11.5-5-3-1-3.7-7-1.4-9 1.5-2 6-2 6 1-0.2-1 0.2 2 2 3z" fill-rule="evenodd"/>
<g clip-path="url(#l)" stroke="#000" stroke-width="2.7" fill="#d9dadb">
<rect height="96" rx="10" ry="10" width="158" y="10" x="-79"/>
<g id="b">
<rect height="43" rx="10" ry="10" width="102" y="146.6" x="15.65"/>
<rect height="45" rx="10" ry="10" width="111.3" y="226.6" x="15.65"/>
</g>
<use xlink:href="#b" transform="scale(-1,1)"/>
</g>
</svg>